# xmcd
#
# Track frame offsets:
#	150
#	13690
#	30717
#	46078
#	63696
#	85424
#	100353
#	115024
#	129709
#	146291
#	167648
#	185946
#	202958
#
# Disc length: 2951 seconds
# Revision: 0
# Processed by: cddbd v1.5.2PL0 Copyright (c) Steve Scherf et al.
# Submitted via: dBpowerAMP V12.0
#
DISCID=b50b850d
DTITLE=Sam Coe and  The Long Shadows - Full Moon
DYEAR=2018
DGENRE=Country
TTITLE0=Full Moon
TTITLE1=Whiskey Dreaming
TTITLE2=Rhinstones
TTITLE3=Hey Heart Breakers
TTITLE4=End In Tears
TTITLE5=Motel Cherokee
TTITLE6=Tennessee Blue
TTITLE7=Salvation
TTITLE8=AThousand Conversations
TTITLE9=Holding On To You
TTITLE10=Rocking Chair Regrets (Live)
TTITLE11=Santa Fe
TTITLE12=Fire
EXTD=
EXTT0=
EXTT1=
EXTT2=
EXTT3=
EXTT4=
EXTT5=
EXTT6=
EXTT7=
EXTT8=
EXTT9=
EXTT10=
EXTT11=
EXTT12=
PLAYORDER=
